G75*
%MOIN*%
%OFA0B0*%
%FSLAX24Y24*%
%IPPOS*%
%LPD*%
%AMOC8*
5,1,8,0,0,1.08239X$1,22.5*
%
%ADD10C,0.0000*%
%ADD11R,0.0250X0.0750*%
%ADD12C,0.0705*%
%ADD13R,0.0260X0.0800*%
%ADD14R,0.0591X0.0591*%
%ADD15C,0.0600*%
%ADD16C,0.0160*%
%ADD17C,0.0500*%
%ADD18OC8,0.0472*%
%ADD19C,0.0240*%
%ADD20C,0.1000*%
%ADD21C,0.0320*%
%ADD22C,0.2756*%
D10*
X015374Y006799D02*
X011142Y022547D01*
X050512Y022547D01*
X046280Y006799D01*
X015374Y006799D01*
D11*
X029077Y017799D03*
X029577Y017799D03*
X030077Y017799D03*
X030577Y017799D03*
X031077Y017799D03*
X031577Y017799D03*
X032077Y017799D03*
X032577Y017799D03*
X032577Y019799D03*
X032077Y019799D03*
X031577Y019799D03*
X031077Y019799D03*
X030577Y019799D03*
X030077Y019799D03*
X029577Y019799D03*
X029077Y019799D03*
D12*
X029843Y009151D02*
X029843Y008446D01*
X031811Y008446D02*
X031811Y009151D01*
D13*
X031577Y013089D03*
X031077Y013089D03*
X030577Y013089D03*
X030077Y013089D03*
X029577Y013089D03*
X029077Y013089D03*
X032077Y013089D03*
X032577Y013089D03*
X032577Y015509D03*
X032077Y015509D03*
X031577Y015509D03*
X031077Y015509D03*
X030577Y015509D03*
X030077Y015509D03*
X029577Y015509D03*
X029077Y015509D03*
D14*
X026142Y014799D03*
X026142Y016799D03*
X022142Y016799D03*
X022142Y014799D03*
X022142Y012799D03*
X026142Y012799D03*
X030327Y011799D03*
X031327Y011799D03*
X035642Y012799D03*
X035642Y014799D03*
X035642Y016799D03*
X034392Y017549D03*
X033392Y017549D03*
X039642Y016799D03*
X039642Y014799D03*
X039642Y012799D03*
X044892Y011549D03*
X045892Y011549D03*
X016892Y011549D03*
X015892Y011549D03*
D15*
X015496Y012724D02*
X014917Y012569D01*
X014658Y013535D02*
X015237Y013690D01*
X014979Y014656D02*
X014399Y014500D01*
X014140Y015466D02*
X014720Y015622D01*
X014461Y016588D02*
X013881Y016432D01*
X013623Y017398D02*
X014202Y017554D01*
X046158Y012724D02*
X046737Y012569D01*
X046996Y013535D02*
X046417Y013690D01*
X046675Y014656D02*
X047255Y014500D01*
X047514Y015466D02*
X046934Y015622D01*
X047193Y016588D02*
X047773Y016432D01*
X048032Y017398D02*
X047452Y017554D01*
D16*
X035142Y018299D02*
X035142Y021049D01*
X029077Y021049D01*
X029077Y019799D01*
X029577Y019799D02*
X029577Y020549D01*
X034392Y020549D01*
X034392Y019799D01*
X032577Y019799D01*
X031577Y019799D02*
X031577Y018549D01*
X033392Y018549D01*
X033392Y018299D01*
X034392Y017549D02*
X034392Y019799D01*
X031077Y019799D02*
X031077Y018799D01*
X031017Y018799D01*
X030577Y019234D02*
X030577Y019799D01*
X030077Y019799D02*
X030077Y019299D01*
X029827Y019049D01*
X028142Y019049D01*
X028142Y019299D01*
X027392Y019799D02*
X027392Y018549D01*
X029892Y018549D01*
X030577Y019234D01*
D17*
X029843Y010799D02*
X025142Y010799D01*
X015206Y010799D01*
X015206Y011549D01*
X015206Y012646D01*
X015206Y011549D02*
X015892Y011549D01*
X029843Y010799D02*
X046448Y010799D01*
X046448Y011549D01*
X046448Y012646D01*
X046448Y011549D02*
X045892Y011549D01*
D18*
X035142Y018299D03*
X033392Y018299D03*
X032892Y016799D03*
X031017Y018799D03*
X029077Y016799D03*
X028142Y019299D03*
X027392Y019799D03*
D19*
X029077Y017799D02*
X029077Y017549D01*
X025142Y017549D01*
X025142Y010799D01*
X027142Y012299D02*
X027142Y012799D01*
X026142Y012799D01*
X027142Y012299D02*
X029892Y012299D01*
X030077Y012484D01*
X030077Y013089D01*
X029577Y013089D02*
X029577Y014049D01*
X027142Y014049D01*
X027142Y014799D01*
X026142Y014799D01*
X028142Y014549D02*
X030577Y014549D01*
X030577Y013089D01*
X031077Y013089D02*
X031077Y014549D01*
X033642Y014549D01*
X033642Y016799D01*
X035642Y016799D01*
X033392Y017549D02*
X032892Y017049D01*
X032892Y016799D01*
X032577Y016799D01*
X032577Y015509D01*
X032077Y015509D02*
X032077Y017799D01*
X031577Y017799D02*
X031577Y015509D01*
X031077Y015509D02*
X031077Y017799D01*
X030577Y017799D02*
X030577Y015509D01*
X030077Y015509D02*
X030077Y017799D01*
X029577Y017799D02*
X029577Y015509D01*
X028142Y014549D02*
X028142Y016799D01*
X026142Y016799D01*
X029077Y016799D02*
X029077Y017549D01*
X032077Y014049D02*
X032077Y013089D01*
X031577Y013089D02*
X031577Y012614D01*
X031892Y012299D01*
X034642Y012299D01*
X034642Y012799D01*
X035642Y012799D01*
X034642Y014049D02*
X034642Y014799D01*
X035642Y014799D01*
X034642Y014049D02*
X032077Y014049D01*
X030327Y011799D02*
X029843Y011799D01*
X029843Y010799D01*
D20*
X029843Y008799D01*
D21*
X028017Y008799D02*
X027267Y008799D01*
X029830Y011338D02*
X029801Y011380D01*
X029782Y011428D01*
X029772Y011478D01*
X029772Y011779D01*
X027039Y011779D01*
X026847Y011858D01*
X026701Y012004D01*
X026639Y012154D01*
X026517Y012104D01*
X025767Y012104D01*
X025620Y012164D01*
X025508Y012277D01*
X025447Y012424D01*
X025447Y013174D01*
X025508Y013321D01*
X025620Y013433D01*
X025767Y013494D01*
X026517Y013494D01*
X026664Y013433D01*
X026776Y013321D01*
X026777Y013319D01*
X027245Y013319D01*
X027437Y013240D01*
X027583Y013093D01*
X027662Y012902D01*
X027662Y012819D01*
X028547Y012819D01*
X028547Y013529D01*
X027039Y013529D01*
X026847Y013608D01*
X026701Y013754D01*
X026622Y013945D01*
X026622Y014147D01*
X026517Y014104D01*
X025767Y014104D01*
X025620Y014164D01*
X025508Y014277D01*
X025447Y014424D01*
X025447Y015174D01*
X025508Y015321D01*
X025620Y015433D01*
X025767Y015494D01*
X026517Y015494D01*
X026664Y015433D01*
X026776Y015321D01*
X026777Y015319D01*
X027245Y015319D01*
X027437Y015240D01*
X027583Y015093D01*
X027622Y014999D01*
X027622Y016279D01*
X026777Y016279D01*
X026776Y016277D01*
X026664Y016164D01*
X026517Y016104D01*
X025767Y016104D01*
X025620Y016164D01*
X025508Y016277D01*
X025447Y016424D01*
X025447Y017174D01*
X025508Y017321D01*
X025620Y017433D01*
X025767Y017494D01*
X026517Y017494D01*
X026664Y017433D01*
X026776Y017321D01*
X026777Y017319D01*
X028245Y017319D01*
X028437Y017240D01*
X028583Y017093D01*
X028662Y016902D01*
X028662Y016189D01*
X028720Y016248D01*
X028867Y016309D01*
X029057Y016309D01*
X029057Y017164D01*
X028926Y017164D01*
X028876Y017174D01*
X028829Y017193D01*
X028786Y017222D01*
X028750Y017258D01*
X028722Y017301D01*
X028702Y017348D01*
X028692Y017398D01*
X028692Y017799D01*
X029052Y017799D01*
X029052Y017799D01*
X028692Y017799D01*
X028692Y018069D01*
X027297Y018069D01*
X027120Y018142D01*
X026985Y018277D01*
X026912Y018453D01*
X026912Y019379D01*
X026756Y019535D01*
X026756Y020062D01*
X027128Y020435D01*
X027656Y020435D01*
X028028Y020062D01*
X028028Y019935D01*
X028406Y019935D01*
X028552Y019789D01*
X028552Y020253D01*
X028597Y020362D01*
X028597Y021144D01*
X028670Y021321D01*
X028805Y021456D01*
X028982Y021529D01*
X035237Y021529D01*
X035414Y021456D01*
X035549Y021321D01*
X035622Y021144D01*
X035622Y018719D01*
X035778Y018562D01*
X035778Y018035D01*
X035406Y017663D01*
X035087Y017663D01*
X035087Y017400D01*
X035120Y017433D01*
X035267Y017494D01*
X036017Y017494D01*
X036164Y017433D01*
X036276Y017321D01*
X036337Y017174D01*
X036337Y016424D01*
X036276Y016277D01*
X036164Y016164D01*
X036017Y016104D01*
X035267Y016104D01*
X035120Y016164D01*
X035008Y016277D01*
X035007Y016279D01*
X034162Y016279D01*
X034162Y014999D01*
X034201Y015093D01*
X034347Y015240D01*
X034539Y015319D01*
X035007Y015319D01*
X035008Y015321D01*
X035120Y015433D01*
X035267Y015494D01*
X036017Y015494D01*
X036164Y015433D01*
X036276Y015321D01*
X036337Y015174D01*
X036337Y014424D01*
X036276Y014277D01*
X036164Y014164D01*
X036017Y014104D01*
X035267Y014104D01*
X035162Y014147D01*
X035162Y013945D01*
X035083Y013754D01*
X034937Y013608D01*
X034745Y013529D01*
X033107Y013529D01*
X033107Y012819D01*
X034122Y012819D01*
X034122Y012902D01*
X034201Y013093D01*
X034347Y013240D01*
X034539Y013319D01*
X035007Y013319D01*
X035008Y013321D01*
X035120Y013433D01*
X035267Y013494D01*
X036017Y013494D01*
X036164Y013433D01*
X036276Y013321D01*
X036337Y013174D01*
X036337Y012424D01*
X036276Y012277D01*
X036164Y012164D01*
X036017Y012104D01*
X035267Y012104D01*
X035145Y012154D01*
X035083Y012004D01*
X034937Y011858D01*
X034745Y011779D01*
X032022Y011779D01*
X032022Y011424D01*
X031961Y011277D01*
X031849Y011164D01*
X031702Y011104D01*
X030952Y011104D01*
X030805Y011164D01*
X030711Y011259D01*
X030698Y011254D01*
X030648Y011244D01*
X030327Y011244D01*
X030327Y011799D01*
X030327Y011799D01*
X030327Y011244D01*
X030006Y011244D01*
X029956Y011254D01*
X029909Y011273D01*
X029866Y011302D01*
X029830Y011338D01*
X029946Y011258D02*
X017587Y011258D01*
X017587Y011174D02*
X017587Y011924D01*
X017526Y012071D01*
X017414Y012183D01*
X017267Y012244D01*
X016517Y012244D01*
X016370Y012183D01*
X016276Y012089D01*
X016263Y012094D01*
X016213Y012104D01*
X015892Y012104D01*
X015571Y012104D01*
X015521Y012094D01*
X015474Y012075D01*
X015431Y012046D01*
X015395Y012010D01*
X015366Y011967D01*
X015347Y011920D01*
X015337Y011870D01*
X015337Y011549D01*
X015892Y011549D01*
X015892Y012104D01*
X015892Y011549D01*
X015892Y011549D01*
X015892Y011549D01*
X015337Y011549D01*
X015337Y011228D01*
X015347Y011178D01*
X015366Y011130D01*
X015395Y011088D01*
X015431Y011052D01*
X015474Y011023D01*
X015521Y011004D01*
X015571Y010994D01*
X015892Y010994D01*
X016213Y010994D01*
X016263Y011004D01*
X016276Y011009D01*
X016370Y010914D01*
X016517Y010854D01*
X017267Y010854D01*
X017414Y010914D01*
X017526Y011027D01*
X017587Y011174D01*
X017439Y010939D02*
X044345Y010939D01*
X044370Y010914D02*
X044517Y010854D01*
X045267Y010854D01*
X045414Y010914D01*
X045508Y011009D01*
X045521Y011004D01*
X045571Y010994D01*
X045892Y010994D01*
X046213Y010994D01*
X046263Y011004D01*
X046310Y011023D01*
X046353Y011052D01*
X046389Y011088D01*
X046418Y011130D01*
X046437Y011178D01*
X046447Y011228D01*
X046447Y011549D01*
X046447Y011870D01*
X046437Y011920D01*
X046418Y011967D01*
X046389Y012010D01*
X046353Y012046D01*
X046310Y012075D01*
X046263Y012094D01*
X046213Y012104D01*
X045892Y012104D01*
X045571Y012104D01*
X045521Y012094D01*
X045508Y012089D01*
X045414Y012183D01*
X045267Y012244D01*
X044517Y012244D01*
X044370Y012183D01*
X044258Y012071D01*
X044197Y011924D01*
X044197Y011174D01*
X044258Y011027D01*
X044370Y010914D01*
X044197Y011258D02*
X031942Y011258D01*
X032022Y011576D02*
X044197Y011576D01*
X044197Y011895D02*
X034973Y011895D01*
X036213Y012213D02*
X039071Y012213D01*
X039120Y012164D02*
X039267Y012104D01*
X040017Y012104D01*
X040164Y012164D01*
X040276Y012277D01*
X040337Y012424D01*
X040337Y013174D01*
X040276Y013321D01*
X040164Y013433D01*
X040017Y013494D01*
X039267Y013494D01*
X039120Y013433D01*
X039008Y013321D01*
X038947Y013174D01*
X038947Y012424D01*
X039008Y012277D01*
X039120Y012164D01*
X038947Y012532D02*
X036337Y012532D01*
X036337Y012850D02*
X038947Y012850D01*
X038947Y013169D02*
X036337Y013169D01*
X036033Y013487D02*
X039251Y013487D01*
X040033Y013487D02*
X045737Y013487D01*
X045741Y013460D02*
X045880Y013219D01*
X045887Y013214D01*
X045840Y013187D01*
X045771Y013131D01*
X045712Y013066D01*
X045664Y012992D01*
X045628Y012911D01*
X045617Y012869D01*
X046448Y012646D01*
X046448Y012646D01*
X047278Y012424D01*
X047290Y012466D01*
X047299Y012554D01*
X047294Y012642D01*
X047276Y012728D01*
X047244Y012810D01*
X047217Y012858D01*
X047226Y012859D01*
X047467Y012998D01*
X047567Y013128D01*
X046924Y010736D01*
X014730Y010736D01*
X014088Y013128D01*
X014187Y012998D01*
X014428Y012859D01*
X014437Y012858D01*
X014410Y012810D01*
X014378Y012728D01*
X014360Y012642D01*
X014355Y012554D01*
X014364Y012466D01*
X014376Y012424D01*
X015206Y012646D01*
X014376Y012424D01*
X014387Y012381D01*
X014423Y012301D01*
X014471Y012227D01*
X014530Y012161D01*
X014598Y012106D01*
X014675Y012062D01*
X014757Y012030D01*
X014843Y012012D01*
X014931Y012007D01*
X015019Y012016D01*
X015351Y012105D01*
X015206Y012646D01*
X015206Y012646D01*
X015206Y012646D01*
X015351Y012105D01*
X015684Y012194D01*
X015764Y012230D01*
X015838Y012278D01*
X015904Y012337D01*
X015959Y012406D01*
X016003Y012482D01*
X016035Y012564D01*
X016053Y012651D01*
X016058Y012739D01*
X016049Y012826D01*
X016037Y012869D01*
X016026Y012911D01*
X015990Y012992D01*
X015942Y013066D01*
X015883Y013131D01*
X015814Y013187D01*
X015767Y013214D01*
X015774Y013219D01*
X015913Y013460D01*
X015950Y013736D01*
X015878Y014005D01*
X015708Y014226D01*
X015581Y014300D01*
X015654Y014426D01*
X015691Y014702D01*
X015619Y014971D01*
X015449Y015192D01*
X015322Y015266D01*
X015396Y015392D01*
X015432Y015668D01*
X015360Y015937D01*
X015190Y016158D01*
X015064Y016231D01*
X015137Y016358D01*
X015173Y016634D01*
X015101Y016903D01*
X014932Y017124D01*
X014805Y017197D01*
X014878Y017324D01*
X014914Y017600D01*
X014842Y017869D01*
X014673Y018090D01*
X014432Y018229D01*
X014155Y018266D01*
X013307Y018038D01*
X013086Y017869D01*
X012947Y017628D01*
X012878Y017628D01*
X012947Y017628D02*
X012924Y017457D01*
X012539Y018891D01*
X012876Y018800D01*
X013345Y018800D01*
X013797Y018922D01*
X014202Y019156D01*
X014533Y019487D01*
X014767Y019892D01*
X014888Y020344D01*
X014888Y020812D01*
X014767Y021265D01*
X014533Y021670D01*
X014202Y022001D01*
X013950Y022147D01*
X047704Y022147D01*
X047452Y022001D01*
X047121Y021670D01*
X046887Y021265D01*
X046766Y020812D01*
X046766Y020344D01*
X046887Y019892D01*
X047121Y019487D01*
X047452Y019156D01*
X047857Y018922D01*
X048309Y018800D01*
X048778Y018800D01*
X049115Y018891D01*
X048730Y017457D01*
X048707Y017628D01*
X048776Y017628D01*
X048707Y017628D02*
X048568Y017869D01*
X048347Y018038D01*
X047499Y018266D01*
X047223Y018229D01*
X046981Y018090D01*
X046812Y017869D01*
X046740Y017600D01*
X046776Y017324D01*
X046849Y017197D01*
X046723Y017124D01*
X046553Y016903D01*
X046481Y016634D01*
X046517Y016358D01*
X046590Y016231D01*
X046464Y016158D01*
X046294Y015937D01*
X046222Y015668D01*
X046258Y015392D01*
X046332Y015266D01*
X046205Y015192D01*
X046035Y014971D01*
X045963Y014702D01*
X046000Y014426D01*
X046073Y014300D01*
X045946Y014226D01*
X045777Y014005D01*
X045704Y013736D01*
X045741Y013460D01*
X045817Y013169D02*
X040337Y013169D01*
X040337Y012850D02*
X045612Y012850D01*
X045617Y012869D02*
X045606Y012826D01*
X045596Y012739D01*
X045601Y012651D01*
X045619Y012564D01*
X045651Y012482D01*
X045695Y012406D01*
X045750Y012337D01*
X045816Y012278D01*
X045890Y012230D01*
X045970Y012194D01*
X046303Y012105D01*
X046635Y012016D01*
X046723Y012007D01*
X046811Y012012D01*
X046897Y012030D01*
X046979Y012062D01*
X047056Y012106D01*
X047124Y012161D01*
X047183Y012227D01*
X047231Y012301D01*
X047267Y012381D01*
X047278Y012424D01*
X046448Y012646D01*
X046303Y012105D01*
X046448Y012646D01*
X046448Y012646D01*
X045617Y012869D01*
X045686Y012850D02*
X045686Y012850D01*
X045632Y012532D02*
X040337Y012532D01*
X040213Y012213D02*
X044443Y012213D01*
X045341Y012213D02*
X045928Y012213D01*
X045892Y012104D02*
X045892Y011549D01*
X045892Y012104D01*
X045892Y011895D02*
X045892Y011895D01*
X045892Y011576D02*
X045892Y011576D01*
X045892Y011549D02*
X045892Y011549D01*
X046447Y011549D01*
X045892Y011549D01*
X045892Y011549D01*
X045892Y010994D01*
X045892Y011549D01*
X045892Y011549D01*
X045892Y011258D02*
X045892Y011258D01*
X045439Y010939D02*
X046978Y010939D01*
X047064Y011258D02*
X046447Y011258D01*
X046447Y011576D02*
X047150Y011576D01*
X047235Y011895D02*
X046442Y011895D01*
X046332Y012213D02*
X046332Y012213D01*
X046417Y012532D02*
X046417Y012532D01*
X046448Y012646D02*
X046448Y012646D01*
X046875Y012532D02*
X046875Y012532D01*
X047297Y012532D02*
X047406Y012532D01*
X047492Y012850D02*
X047221Y012850D01*
X047171Y012213D02*
X047321Y012213D01*
X047694Y013601D02*
X047672Y013764D01*
X047599Y013891D01*
X047726Y013964D01*
X047827Y014095D01*
X047694Y013601D01*
X047648Y013806D02*
X047749Y013806D01*
X047953Y014565D02*
X047931Y014730D01*
X047858Y014857D01*
X047984Y014930D01*
X048087Y015063D01*
X047953Y014565D01*
X047913Y014761D02*
X048006Y014761D01*
X048212Y015529D02*
X048190Y015696D01*
X048117Y015823D01*
X048243Y015896D01*
X048347Y016030D01*
X048212Y015529D01*
X048178Y015717D02*
X048262Y015717D01*
X048471Y016493D02*
X048449Y016662D01*
X048375Y016788D01*
X048502Y016862D01*
X048607Y016998D01*
X048471Y016493D01*
X048442Y016672D02*
X048519Y016672D01*
X048601Y016991D02*
X048605Y016991D01*
X048467Y017946D02*
X048861Y017946D01*
X048947Y018265D02*
X047502Y018265D01*
X047492Y018265D02*
X035778Y018265D01*
X035757Y018583D02*
X049033Y018583D01*
X047931Y018902D02*
X035622Y018902D01*
X035622Y019220D02*
X047387Y019220D01*
X047091Y019539D02*
X035622Y019539D01*
X035622Y019857D02*
X046907Y019857D01*
X046811Y020176D02*
X035622Y020176D01*
X035622Y020494D02*
X046766Y020494D01*
X046766Y020813D02*
X035622Y020813D01*
X035622Y021131D02*
X046851Y021131D01*
X046994Y021450D02*
X035420Y021450D01*
X033912Y019319D02*
X033091Y019319D01*
X033041Y019197D01*
X032929Y019085D01*
X032794Y019029D01*
X033487Y019029D01*
X033664Y018956D01*
X033799Y018821D01*
X033819Y018771D01*
X033912Y018679D01*
X033912Y019319D01*
X033912Y019220D02*
X033051Y019220D01*
X032360Y019029D02*
X032294Y019029D01*
X032327Y019043D01*
X032360Y019029D01*
X033718Y018902D02*
X033912Y018902D01*
X035689Y017946D02*
X046871Y017946D01*
X046747Y017628D02*
X035087Y017628D01*
X036281Y017309D02*
X039003Y017309D01*
X039008Y017321D02*
X038947Y017174D01*
X038947Y016424D01*
X039008Y016277D01*
X039120Y016164D01*
X039267Y016104D01*
X040017Y016104D01*
X040164Y016164D01*
X040276Y016277D01*
X040337Y016424D01*
X040337Y017174D01*
X040276Y017321D01*
X040164Y017433D01*
X040017Y017494D01*
X039267Y017494D01*
X039120Y017433D01*
X039008Y017321D01*
X038947Y016991D02*
X036337Y016991D01*
X036337Y016672D02*
X038947Y016672D01*
X038976Y016354D02*
X036308Y016354D01*
X036199Y015398D02*
X039085Y015398D01*
X039120Y015433D02*
X039008Y015321D01*
X038947Y015174D01*
X038947Y014424D01*
X039008Y014277D01*
X039120Y014164D01*
X039267Y014104D01*
X040017Y014104D01*
X040164Y014164D01*
X040276Y014277D01*
X040337Y014424D01*
X040337Y015174D01*
X040276Y015321D01*
X040164Y015433D01*
X040017Y015494D01*
X039267Y015494D01*
X039120Y015433D01*
X038947Y015080D02*
X036337Y015080D01*
X036337Y014761D02*
X038947Y014761D01*
X038947Y014443D02*
X036337Y014443D01*
X036067Y014124D02*
X039217Y014124D01*
X040067Y014124D02*
X045868Y014124D01*
X045997Y014443D02*
X040337Y014443D01*
X040337Y014761D02*
X045979Y014761D01*
X046119Y015080D02*
X040337Y015080D01*
X040199Y015398D02*
X046258Y015398D01*
X046235Y015717D02*
X034162Y015717D01*
X034162Y016035D02*
X046369Y016035D01*
X046520Y016354D02*
X040308Y016354D01*
X040337Y016672D02*
X046491Y016672D01*
X046620Y016991D02*
X040337Y016991D01*
X040281Y017309D02*
X046785Y017309D01*
X045723Y013806D02*
X035104Y013806D01*
X035162Y014124D02*
X035217Y014124D01*
X035251Y013487D02*
X033107Y013487D01*
X033107Y013169D02*
X034277Y013169D01*
X034122Y012850D02*
X033107Y012850D01*
X030712Y011258D02*
X030708Y011258D01*
X030327Y011258D02*
X030327Y011258D01*
X030327Y011576D02*
X030327Y011576D01*
X029772Y011576D02*
X017587Y011576D01*
X017587Y011895D02*
X026811Y011895D01*
X025571Y012213D02*
X022713Y012213D01*
X022664Y012164D02*
X022776Y012277D01*
X022837Y012424D01*
X022837Y013174D01*
X022776Y013321D01*
X022664Y013433D01*
X022517Y013494D01*
X021767Y013494D01*
X021620Y013433D01*
X021508Y013321D01*
X021447Y013174D01*
X021447Y012424D01*
X021508Y012277D01*
X021620Y012164D01*
X021767Y012104D01*
X022517Y012104D01*
X022664Y012164D01*
X022837Y012532D02*
X025447Y012532D01*
X025447Y012850D02*
X022837Y012850D01*
X022837Y013169D02*
X025447Y013169D01*
X025751Y013487D02*
X022533Y013487D01*
X022517Y014104D02*
X021767Y014104D01*
X021620Y014164D01*
X021508Y014277D01*
X021447Y014424D01*
X021447Y015174D01*
X021508Y015321D01*
X021620Y015433D01*
X021767Y015494D01*
X022517Y015494D01*
X022664Y015433D01*
X022776Y015321D01*
X022837Y015174D01*
X022837Y014424D01*
X022776Y014277D01*
X022664Y014164D01*
X022517Y014104D01*
X022567Y014124D02*
X025717Y014124D01*
X025447Y014443D02*
X022837Y014443D01*
X022837Y014761D02*
X025447Y014761D01*
X025447Y015080D02*
X022837Y015080D01*
X022699Y015398D02*
X025585Y015398D01*
X025476Y016354D02*
X022808Y016354D01*
X022837Y016424D02*
X022776Y016277D01*
X022664Y016164D01*
X022517Y016104D01*
X021767Y016104D01*
X021620Y016164D01*
X021508Y016277D01*
X021447Y016424D01*
X021447Y017174D01*
X021508Y017321D01*
X021620Y017433D01*
X021767Y017494D01*
X022517Y017494D01*
X022664Y017433D01*
X022776Y017321D01*
X022837Y017174D01*
X022837Y016424D01*
X022837Y016672D02*
X025447Y016672D01*
X025447Y016991D02*
X022837Y016991D01*
X022781Y017309D02*
X025503Y017309D01*
X026997Y018265D02*
X014162Y018265D01*
X014152Y018265D02*
X012707Y018265D01*
X012621Y018583D02*
X026912Y018583D01*
X026912Y018902D02*
X013723Y018902D01*
X014267Y019220D02*
X026912Y019220D01*
X026756Y019539D02*
X014563Y019539D01*
X014747Y019857D02*
X026756Y019857D01*
X026869Y020176D02*
X014843Y020176D01*
X014888Y020494D02*
X028597Y020494D01*
X028597Y020813D02*
X014888Y020813D01*
X014803Y021131D02*
X028597Y021131D01*
X028799Y021450D02*
X014660Y021450D01*
X014435Y021768D02*
X047219Y021768D01*
X047600Y022087D02*
X014054Y022087D01*
X012271Y022147D02*
X012019Y022001D01*
X011770Y021752D01*
X011664Y022147D01*
X012271Y022147D01*
X012167Y022087D02*
X011680Y022087D01*
X011765Y021768D02*
X011786Y021768D01*
X012793Y017946D02*
X013187Y017946D01*
X014783Y017946D02*
X028692Y017946D01*
X028692Y017628D02*
X014907Y017628D01*
X014869Y017309D02*
X021503Y017309D01*
X021447Y016991D02*
X015034Y016991D01*
X015163Y016672D02*
X021447Y016672D01*
X021476Y016354D02*
X015134Y016354D01*
X015285Y016035D02*
X027622Y016035D01*
X027622Y015717D02*
X015419Y015717D01*
X015396Y015398D02*
X021585Y015398D01*
X021447Y015080D02*
X015535Y015080D01*
X015675Y014761D02*
X021447Y014761D01*
X021447Y014443D02*
X015657Y014443D01*
X015786Y014124D02*
X021717Y014124D01*
X021751Y013487D02*
X015917Y013487D01*
X015931Y013806D02*
X026680Y013806D01*
X026622Y014124D02*
X026567Y014124D01*
X026533Y013487D02*
X028547Y013487D01*
X028547Y013169D02*
X027507Y013169D01*
X027662Y012850D02*
X028547Y012850D01*
X027622Y015080D02*
X027588Y015080D01*
X027622Y015398D02*
X026699Y015398D01*
X028662Y016354D02*
X029057Y016354D01*
X029057Y016672D02*
X028662Y016672D01*
X028625Y016991D02*
X029057Y016991D01*
X028718Y017309D02*
X028268Y017309D01*
X028483Y019857D02*
X028552Y019857D01*
X028552Y020176D02*
X027915Y020176D01*
X032597Y017024D02*
X032782Y017024D01*
X032907Y017076D01*
X032931Y017052D01*
X032974Y017023D01*
X033021Y017004D01*
X033071Y016994D01*
X033160Y016994D01*
X033122Y016902D01*
X033122Y015069D01*
X032964Y015069D01*
X032967Y015083D01*
X032967Y015509D01*
X032967Y015934D01*
X032957Y015985D01*
X032937Y016032D01*
X032909Y016075D01*
X032873Y016111D01*
X032830Y016139D01*
X032783Y016159D01*
X032733Y016169D01*
X032597Y016169D01*
X032597Y017024D01*
X032597Y016991D02*
X033159Y016991D01*
X033122Y016672D02*
X032597Y016672D01*
X032597Y016354D02*
X033122Y016354D01*
X033122Y016035D02*
X032935Y016035D01*
X032967Y015717D02*
X033122Y015717D01*
X032967Y015509D02*
X032607Y015509D01*
X032607Y015509D01*
X032967Y015509D01*
X032967Y015398D02*
X033122Y015398D01*
X033122Y015080D02*
X032966Y015080D01*
X034162Y015080D02*
X034196Y015080D01*
X034162Y015398D02*
X035085Y015398D01*
X034142Y009299D02*
X034142Y008799D01*
X034142Y008299D01*
X034142Y008799D02*
X033642Y008799D01*
X034142Y008799D02*
X034642Y008799D01*
X021571Y012213D02*
X017341Y012213D01*
X016443Y012213D02*
X015726Y012213D01*
X015892Y011895D02*
X015892Y011895D01*
X015892Y011576D02*
X015892Y011576D01*
X015892Y011549D02*
X015892Y010994D01*
X015892Y011549D01*
X015892Y011549D01*
X015892Y011258D02*
X015892Y011258D01*
X016345Y010939D02*
X014676Y010939D01*
X014590Y011258D02*
X015337Y011258D01*
X015337Y011576D02*
X014505Y011576D01*
X014419Y011895D02*
X015342Y011895D01*
X015322Y012213D02*
X015322Y012213D01*
X015237Y012532D02*
X015237Y012532D01*
X015206Y012646D02*
X015206Y012646D01*
X016037Y012869D01*
X015206Y012646D01*
X014779Y012532D02*
X014779Y012532D01*
X014357Y012532D02*
X014248Y012532D01*
X014162Y012850D02*
X014433Y012850D01*
X014483Y012213D02*
X014333Y012213D01*
X016022Y012532D02*
X021447Y012532D01*
X021447Y012850D02*
X016042Y012850D01*
X015968Y012850D02*
X015968Y012850D01*
X015837Y013169D02*
X021447Y013169D01*
X014055Y013891D02*
X013982Y013764D01*
X013960Y013601D01*
X013828Y014095D01*
X013928Y013964D01*
X014055Y013891D01*
X014006Y013806D02*
X013905Y013806D01*
X013701Y014565D02*
X013568Y015063D01*
X013670Y014930D01*
X013796Y014857D01*
X013723Y014730D01*
X013701Y014565D01*
X013741Y014761D02*
X013649Y014761D01*
X013442Y015529D02*
X013308Y016030D01*
X013411Y015896D01*
X013538Y015823D01*
X013464Y015696D01*
X013442Y015529D01*
X013477Y015717D02*
X013392Y015717D01*
X013183Y016493D02*
X013047Y016998D01*
X013152Y016862D01*
X013279Y016788D01*
X013206Y016662D01*
X013183Y016493D01*
X013212Y016672D02*
X013135Y016672D01*
X013053Y016991D02*
X013049Y016991D01*
X049383Y022147D02*
X049635Y022001D01*
X049884Y021752D01*
X049990Y022147D01*
X049383Y022147D01*
X049487Y022087D02*
X049974Y022087D01*
X049889Y021768D02*
X049868Y021768D01*
D22*
X048544Y020578D03*
X044607Y008767D03*
X017048Y008767D03*
X013110Y020578D03*
M02*
