%
M48
M72
T01C0.0315
T02C0.0400
T03C0.0470
T04C0.1260
%
T01
X15892Y11549
X16892Y11549
X22142Y12799
X22142Y14799
X22142Y16799
X26142Y16799
X29077Y16799
X31017Y18799
X33392Y18299
X33392Y17549
X32892Y16799
X34392Y17549
X35142Y18299
X35642Y16799
X35642Y14799
X35642Y12799
X39642Y12799
X39642Y14799
X39642Y16799
X44892Y11549
X45892Y11549
X31327Y11799
X30327Y11799
X26142Y12799
X26142Y14799
X28142Y19299
X27392Y19799
T02
X14948Y13612
X14689Y14578
X14430Y15544
X14171Y16510
X13912Y17476
X15206Y12646
X46448Y12646
X46706Y13612
X46965Y14578
X47224Y15544
X47483Y16510
X47742Y17476
T03
X31811Y8799
X29843Y8799
T04
X17048Y8767
X13110Y20578
X44607Y8767
X48544Y20578
M30
